<?xml version="1.0" standalone="no"?>
<!DOCTYPE svg PUBLIC "-//W3C//DTD SVG 20010904//EN"
 "http://www.w3.org/TR/2001/REC-SVG-20010904/DTD/svg10.dtd">
<svg version="1.0" xmlns="http://www.w3.org/2000/svg"
 width="1920.000000pt" height="1080.000000pt" viewBox="0 0 1920.000000 1080.000000"
 preserveAspectRatio="xMidYMid meet">

<g transform="translate(0.000000,1080.000000) scale(0.100000,-0.100000)"
fill="#000000" stroke="none">
<path d="M0 5400 l0 -5400 9600 0 9600 0 0 5400 0 5400 -9600 0 -9600 0 0
-5400z m7979 1405 c206 -36 390 -100 506 -175 l75 -50 -31 -62 c-29 -59 -30
-62 -8 -42 108 97 340 224 509 279 170 55 269 69 470 69 186 -1 306 -16 453
-59 74 -21 77 -21 77 -3 0 17 14 18 327 16 l328 -3 292 -760 c161 -418 294
-763 295 -767 2 -5 136 337 299 760 l295 767 327 3 c180 1 327 1 327 -1 0 -12
231 -2583 235 -2624 l6 -53 -305 0 -306 0 -4 23 c-3 12 -32 368 -66 791 -33
423 -62 772 -65 774 -6 6 17 70 -286 -798 l-267 -765 -185 -3 -185 -2 -10 27
c-5 16 -128 366 -272 778 -234 672 -280 796 -280 758 0 -11 -118 -1510 -123
-1553 l-2 -25 -275 -6 c-194 -4 -304 -11 -375 -23 -148 -26 -418 -25 -551 2
-217 44 -439 140 -603 263 -50 37 -91 66 -91 63 0 -3 11 -27 25 -54 l25 -50
-57 -37 c-185 -118 -400 -181 -693 -203 -441 -33 -843 110 -1154 410 -122 118
-208 232 -280 369 -103 200 -146 373 -146 596 0 214 46 406 142 593 74 145
142 236 263 357 204 205 463 346 760 414 140 32 418 35 584 6z"/>
<path d="M7666 6219 c-260 -21 -492 -142 -620 -323 -106 -149 -150 -283 -150
-456 0 -138 24 -235 85 -350 156 -289 406 -429 774 -431 148 -1 221 13 361 67
l92 35 -47 92 c-192 377 -185 829 19 1205 16 30 27 58 25 62 -10 16 -253 89
-315 95 -36 3 -78 7 -95 9 -16 2 -75 -1 -129 -5z"/>
<path d="M9457 6219 c-126 -10 -229 -39 -342 -94 -160 -79 -268 -187 -349
-351 -53 -108 -76 -206 -76 -328 0 -134 20 -222 75 -333 127 -257 340 -406
639 -448 98 -14 287 -6 364 14 41 11 75 21 76 23 3 4 127 1395 126 1419 0 12
-27 25 -92 47 -148 49 -265 63 -421 51z"/>
</g>
</svg>
